# xmcd
#
# Track frame offsets:
# 150
# 19545
# 40221
# 56980
# 71972
# 86351
# 95771
# 114776
# 132165
# 142309
# 164212
# 183444
# 194624
#
# Disc length: 2829 seconds
#
# Revision: 0
# Processed by: cddbd v1.5.2PL0 Copyright (c) Steve Scherf et al.
# Submitted via: Audion 3.0.2 (http://www.panic.com/audion/)
#
DISCID=c50b0b0d
DTITLE=Sandy Tweeddale - At Home With the Blues
DYEAR=1900
DGENRE=
TTITLE0=Cocaine Blues
TTITLE1=Judgement Day
TTITLE2=I Know You Don't Want me
TTITLE3=Bill Bailey
TTITLE4=King Bee
TTITLE5=Scott's Rag
TTITLE6=Shotgun Blues
TTITLE7=Train Comes Along
TTITLE8=Glory Of Love
TTITLE9=Satisfaction
TTITLE10=Mean Ole Fireman
TTITLE11=Blues At Home
TTITLE12=I Get The Blues When It Rains
EXTD=
EXTT0=
EXTT1=
EXTT2=
EXTT3=
EXTT4=
EXTT5=
EXTT6=
EXTT7=
EXTT8=
EXTT9=
EXTT10=
EXTT11=
EXTT12=
PLAYORDER=
